<?xml version="1.0" encoding="utf-8"?>
<!-- Generator: Adobe Illustrator 23.0.3, SVG Export Plug-In . SVG Version: 6.00 Build 0)  -->
<svg version="1.1" id="Layer_1" xmlns="http://www.w3.org/2000/svg" xmlns:xlink="http://www.w3.org/1999/xlink" x="0px" y="0px"
	 viewBox="0 0 560 560" style="enable-background:new 0 0 560 560;" xml:space="preserve">
<style type="text/css">
	.st0{fill:url(#SVGID_1_);}
</style>
<linearGradient id="SVGID_1_" gradientUnits="userSpaceOnUse" x1="17" y1="279.543" x2="542" y2="279.543">
	<stop  offset="0" style="stop-color:#804D85"/>
	<stop  offset="1" style="stop-color:#41BDBD"/>
</linearGradient>
<path class="st0" d="M530.8,26.4h-125c-6.2,0-11.3,5-11.3,11.3v112.5H282c-6.2,0-11.3,5-11.3,11.3v120H152c-6.2,0-11.3,5-11.3,11.3
	v110H28.3c-6.2,0-11.3,5-11.3,11.3v107.5c0,6.2,5,11.3,11.3,11.3h502.5c6.2,0,11.3-5,11.3-11.3V37.7C542,31.5,537,26.4,530.8,26.4z
	 M519.5,510.2h-480v-85H152c6.2,0,11.3-5,11.3-11.3v-110H282c6.2,0,11.3-5,11.3-11.3v-120h112.5c6.2,0,11.3-5,11.3-11.3V48.9h102.5
	V510.2z M206.8,137.2c6.2,0,11.3-5,11.3-11.3V63.5c0-6.2-5-11.3-11.3-11.3h-62.5c-6.2,0-11.3,5-11.3,11.3c0,6.2,5,11.3,11.3,11.3
	H181L69.3,186.4c-4.4,4.4-4.4,11.5,0,15.9c4.4,4.4,11.5,4.4,15.9,0L195.5,92v34C195.5,132.2,200.6,137.2,206.8,137.2z"/>
</svg>
